<!-- <?xml version="1.0" standalone="no"?><!DOCTYPE svg PUBLIC "-//W3C//DTD SVG 1.1//EN" "http://www.w3.org/Graphics/SVG/1.1/DTD/svg11.dtd"><svg t="1576058656941" class="icon" viewBox="0 0 1024 1024" version="1.1" xmlns="http://www.w3.org/2000/svg" p-id="3661" width="48" height="48" xmlns:xlink="http://www.w3.org/1999/xlink"><defs><style type="text/css"></style></defs><path d="M512.625752 61.5928c-247.332085 0-447.833585 200.502523-447.833585 447.833585 0 247.331062 200.502523 447.832562 447.833585 447.832562 247.331062 0 447.832562-200.5015 447.832562-447.832562S759.956813 61.5928 512.625752 61.5928zM568.205605 786.780227l-102.777805 0.311085-0.684592-226.111784-226.111784 0.684592-0.312108-102.777805 226.112808-0.684592-0.684592-226.111784 102.777805-0.311085 0.684592 226.111784 226.113831-0.684592 0.311085 102.778828-226.111784 0.683569L568.205605 786.780227z" p-id="3662" fill="#1296db"></path></svg> -->
<?xml version="1.0" standalone="no"?><!DOCTYPE svg PUBLIC "-//W3C//DTD SVG 1.1//EN" "http://www.w3.org/Graphics/SVG/1.1/DTD/svg11.dtd"><svg t="1582710974306" class="icon" viewBox="0 0 1024 1024" version="1.1" xmlns="http://www.w3.org/2000/svg" p-id="4173" width="200" height="200"><path d="M512 113.93024c-213.71904 0-386.97984 173.2608-386.97984 386.97984S298.28096 887.88992 512 887.88992s386.97984-173.2608 386.97984-386.97984S725.71904 113.93024 512 113.93024zM732.83584 563.07712 568.18688 563.07712l0 164.62848c0 28.2112-22.85568 51.07712-51.06688 51.07712-28.20096 0-51.07712-22.86592-51.07712-51.07712L466.04288 563.07712 301.4144 563.07712c-28.2112 0-51.07712-22.86592-51.07712-51.07712s22.86592-51.07712 51.07712-51.07712l164.63872 0L466.05312 296.2944c0-28.2112 22.86592-51.06688 51.07712-51.06688 28.2112 0 51.06688 22.85568 51.06688 51.06688l0 164.63872 164.64896 0c28.20096 0 51.07712 22.86592 51.07712 51.07712S761.0368 563.07712 732.83584 563.07712z" p-id="4174" fill="#eb5403"></path></svg>
