<?xml version="1.0" standalone="no"?><!DOCTYPE svg PUBLIC "-//W3C//DTD SVG 1.1//EN" "http://www.w3.org/Graphics/SVG/1.1/DTD/svg11.dtd"><svg t="1576059043238" class="icon" viewBox="0 0 1024 1024" version="1.1" xmlns="http://www.w3.org/2000/svg" p-id="8684" xmlns:xlink="http://www.w3.org/1999/xlink" width="128" height="128"><defs><style type="text/css"></style></defs><path d="M877.714286 950.857143V658.285714a73.142857 73.142857 0 0 0-73.142857-73.142857h-73.142858a73.142857 73.142857 0 0 0-73.142857 73.142857v292.571429H585.142857V73.142857a73.142857 73.142857 0 0 0-73.142857-73.142857H146.285714a73.142857 73.142857 0 0 0-73.142857 73.142857v877.714286H0v73.142857h1024v-73.142857z m-146.285715-292.571429h73.142858v73.142857h-73.142858z m0 146.285715h73.142858v73.142857h-73.142858zM219.428571 73.142857h219.428572v146.285714H219.428571z m0 219.428572h219.428572v146.285714H219.428571z m0 219.428571h219.428572v146.285714H219.428571z m0 219.428571h219.428572v146.285715H219.428571z" p-id="8685" fill="#1296db"></path></svg>