<!-- <?xml version="1.0" standalone="no"?><!DOCTYPE svg PUBLIC "-//W3C//DTD SVG 1.1//EN" "http://www.w3.org/Graphics/SVG/1.1/DTD/svg11.dtd"><svg t="1576058835066" class="icon" viewBox="0 0 1024 1024" version="1.1" xmlns="http://www.w3.org/2000/svg" p-id="6325" xmlns:xlink="http://www.w3.org/1999/xlink" width="48" height="48"><defs><style type="text/css"></style></defs><path d="M919.096192 1.803429 106.384339 1.803429c-57.74173 0-104.670881 46.928152-104.670881 104.670881l0 812.855807c0 57.74173 46.928152 104.669882 104.670881 104.669882l812.78383 0c57.74173 0 104.669882-46.928152 104.669882-104.669882L1023.838051 106.402334C1023.768073 48.659604 976.836923 1.803429 919.096192 1.803429zM826.535479 292.242533l-2.161316 1.153635-0.288909 2.450225C801.808303 449.608741 667.944658 565.597042 512.739766 565.597042c-155.202893 0-289.069537-115.988301-311.344489-269.750649l-0.359886-2.450225-2.163316-1.153635c-15.427119-9.155103-24.654199-24.654199-24.654199-41.666816 0-26.96047 21.915066-48.875535 48.947513-48.875535 26.96047 0 48.875535 21.915066 48.875535 48.875535 0 14.201507-6.41597 27.46531-18.166252 37.196231l-2.30727 1.80243 0.50484 2.884087c20.5445 128.963195 130.189807 222.533589 260.667523 222.533589 130.478716 0 240.123024-93.641371 260.667523-222.533589l0.50584-2.81211-2.235293-1.80243c-11.822259-9.803898-18.166252-22.995724-18.166252-37.197231 0-26.96047 21.915066-48.875535 48.875535-48.875535l0 0 0 0 0 0c27.032447 0 48.947513 21.914066 48.947513 48.875535C851.261655 267.589333 842.034575 283.088429 826.535479 292.242533z" p-id="6326" fill="#1296db"></path></svg> -->
<?xml version="1.0" standalone="no"?><!DOCTYPE svg PUBLIC "-//W3C//DTD SVG 1.1//EN" "http://www.w3.org/Graphics/SVG/1.1/DTD/svg11.dtd"><svg t="1582710599106" class="icon" viewBox="0 0 1024 1024" version="1.1" xmlns="http://www.w3.org/2000/svg" p-id="2366" width="200" height="200"><path d="M896 42.666667H128C91.733333 42.666667 64 70.4 64 106.666667v810.666666c0 36.266667 27.733333 64 64 64h768c36.266667 0 64-27.733333 64-64V106.666667c0-36.266667-27.733333-64-64-64z m-128 341.333333c-8.533333 106.666667-140.8 192-256 192s-247.466667-85.333333-256-192c-25.6-4.266667-42.666667-25.6-42.666667-53.333333 0-29.866667 23.466667-53.333333 53.333334-53.333334s53.333333 23.466667 53.333333 53.333334c0 17.066667-8.533333 32-21.333333 42.666666 0 87.466667 119.466667 160 213.333333 160s213.333333-72.533333 213.333333-160c-12.8-10.666667-21.333333-25.6-21.333333-42.666666 0-29.866667 23.466667-53.333333 53.333333-53.333334s53.333333 23.466667 53.333334 53.333334c0 25.6-19.2 46.933333-42.666667 53.333333z" fill="#eb5403" p-id="2367"></path></svg>
