<!-- <?xml version="1.0" standalone="no"?><!DOCTYPE svg PUBLIC "-//W3C//DTD SVG 1.1//EN" "http://www.w3.org/Graphics/SVG/1.1/DTD/svg11.dtd"><svg t="1576058799011" class="icon" viewBox="0 0 1024 1024" version="1.1" xmlns="http://www.w3.org/2000/svg" p-id="5507" xmlns:xlink="http://www.w3.org/1999/xlink" width="48" height="48"><defs><style type="text/css"></style></defs><path d="M941.6 874L763.7 696.1c20.6-26.7 37.6-55.9 50.8-87.2 20.3-48.3 30.6-99.6 30.6-152.4s-10.3-104.1-30.6-152.4c-19.6-46.6-47.7-88.5-83.5-124.5s-77.5-64.2-123.9-84C559 75.3 507.9 64.9 455.3 64.9S351.6 75.3 303.5 95.8c-46.4 19.7-88.1 48-123.9 84-35.8 36-63.9 77.8-83.5 124.5-20.3 48.3-30.6 99.6-30.6 152.4s10.3 104.1 30.6 152.4c19.6 46.6 47.7 88.5 83.5 124.5s77.5 64.2 123.9 84c48.1 20.5 99.2 30.8 151.8 30.8S559 838 607.1 817.6c31.7-13.5 61.2-30.9 88.1-52l177.6 177.6c18.9 18.9 49.9 18.9 68.9 0 18.9-19.3 18.9-50.3-0.1-69.2zM455.3 768.3c-170.9 0-310-139.8-310-311.7s139-311.7 310-311.7c170.9 0 310 139.8 310 311.7s-139.1 311.7-310 311.7z" p-id="5508" fill="#1296db"></path></svg> -->
<?xml version="1.0" standalone="no"?><!DOCTYPE svg PUBLIC "-//W3C//DTD SVG 1.1//EN" "http://www.w3.org/Graphics/SVG/1.1/DTD/svg11.dtd"><svg t="1582711047456" class="icon" viewBox="0 0 1024 1024" version="1.1" xmlns="http://www.w3.org/2000/svg" p-id="5752" width="200" height="200"><path d="M334.482515 558.37625a158.31 158.31 0 1 0 223.880242-223.888056 158.31 158.31 0 1 0-223.880242 223.888056Z" p-id="5753" fill="#eb5403"></path><path d="M512 22C241.38 22 22 241.38 22 512s219.38 490 490 490 490-219.38 490-490S782.62 22 512 22z m278.35 762.65l-5.7 5.7c-11.72 11.72-30.71 11.72-42.43 0L577.15 625.28c-86.6 63.37-209.17 55.97-287.36-22.22-86.37-86.37-86.37-226.9 0-313.27s226.9-86.37 313.27 0c78.19 78.19 85.59 200.76 22.22 287.36l165.07 165.07c11.72 11.72 11.72 30.71 0 42.43z" p-id="5754" fill="#eb5403"></path></svg>
