<!-- <?xml version="1.0" standalone="no"?><!DOCTYPE svg PUBLIC "-//W3C//DTD SVG 1.1//EN" "http://www.w3.org/Graphics/SVG/1.1/DTD/svg11.dtd"><svg t="1576058891303" class="icon" viewBox="0 0 1024 1024" version="1.1" xmlns="http://www.w3.org/2000/svg" p-id="7373" xmlns:xlink="http://www.w3.org/1999/xlink" width="48" height="48"><defs><style type="text/css"></style></defs><path d="M511.5 119.3l366.8 168.8c-0.4 14.7-1.6 35-4.5 60.2-5.9 52.4-20.6 137.5-56.7 245.4-23 68.8-86.3 145.9-183.1 222.9-48.8 38.9-95.1 68.8-122.2 85.3-26.6-16.9-71.8-47.1-119.7-86.2-95.6-78-159-155.6-183.5-224.5-38.5-108.6-53.1-192.1-58.5-243.1-2.6-24.8-3.4-44.5-3.5-58.7l364.9-170.1m-0.2-55.1L98 257s-16 126.8 63.6 351c67.6 190.3 349.8 352.3 349.8 352.3s289.2-159 353.2-350.6C938.3 388.8 928 256 928 256L511.3 64.2z" fill="#1296db" p-id="7374"></path><path d="M511.3 273.3c25.4 0 46.1 20.7 46.1 46.1s-20.7 46.1-46.1 46.1c-25.4 0-46.1-20.7-46.1-46.1s20.7-46.1 46.1-46.1m0-50c-53.1 0-96.1 43-96.1 96.1s43 96.1 96.1 96.1 96.1-43 96.1-96.1-43-96.1-96.1-96.1z" fill="#1296db" p-id="7375"></path><path d="M486.3 383.8h50v384h-50z" fill="#1296db" p-id="7376"></path><path d="M513 599h94.5v50H513zM513 717h94.5v50H513z" fill="#1296db" p-id="7377"></path></svg> -->
<?xml version="1.0" standalone="no"?><!DOCTYPE svg PUBLIC "-//W3C//DTD SVG 1.1//EN" "http://www.w3.org/Graphics/SVG/1.1/DTD/svg11.dtd"><svg t="1582711460265" class="icon" viewBox="0 0 1024 1024" version="1.1" xmlns="http://www.w3.org/2000/svg" p-id="6785" width="200" height="200"><path d="M328.704 101.376c18.432 0 33.792 6.144 47.104 18.944 12.8 12.8 19.456 28.16 19.456 46.592V430.08c0 18.432-6.656 33.792-19.456 47.104-12.8 12.8-28.672 19.456-47.104 19.456H65.536c-18.432 0-33.792-6.656-46.592-19.456C6.144 463.872 0 448 0 430.08V166.4c0-18.432 6.144-33.792 18.944-46.592s28.16-18.944 46.592-18.944h263.168z m0 526.336c18.432 0 33.792 6.144 47.104 18.944 12.8 12.8 19.456 28.16 19.456 46.592V957.44c0 18.432-6.656 33.792-19.456 46.592s-28.672 18.944-47.104 18.944H65.536c-18.432 0-33.792-6.144-46.592-18.944S0 975.872 0 957.44V693.248c0-18.432 6.144-33.792 18.944-46.592s28.16-18.944 46.592-18.944h263.168z m527.872 0c18.432 0 33.792 6.144 46.592 18.944s18.944 28.16 18.944 46.592V957.44c0 18.432-6.144 33.792-18.944 46.592s-28.16 18.944-46.592 18.944H593.408c-18.432 0-33.792-6.144-47.104-18.944-12.8-12.8-19.456-28.16-19.456-46.592V693.248c0-18.432 6.656-33.792 19.456-46.592s28.672-18.944 47.104-18.944h263.168z m146.432-410.624c13.824 13.824 20.992 30.72 20.992 49.664 0 18.944-7.168 35.328-20.992 48.64L806.912 511.488c-13.824 13.824-30.208 20.992-49.152 20.992-18.432 0-34.816-7.168-49.152-20.992L512.512 315.392c-13.312-13.312-19.968-29.696-19.968-48.64s6.656-35.328 19.968-49.664L708.608 20.992C722.432 7.68 738.816 1.024 757.76 1.024c18.432 0 34.816 6.656 49.152 19.968l196.096 196.096z" fill="#eb5403" p-id="6786"></path></svg>
