<!-- <?xml version="1.0" standalone="no"?><!DOCTYPE svg PUBLIC "-//W3C//DTD SVG 1.1//EN" "http://www.w3.org/Graphics/SVG/1.1/DTD/svg11.dtd"><svg t="1576058423418" class="icon" viewBox="0 0 1142 1024" version="1.1" xmlns="http://www.w3.org/2000/svg" p-id="1959" width="71.375" height="64" xmlns:xlink="http://www.w3.org/1999/xlink"><defs><style type="text/css"></style></defs><path d="M348.22275322 261.50999352c-10.15737088-3.80901297-21.5844127-8.88769987-34.28112563-13.9663867 1.26967099 0 2.53934201 0 3.80901303-1.26967099 12.69671286-3.80901297 19.04507074-16.50572871 16.50572872-29.2024416 0-2.53934201-1.26967099-5.07868684-2.53934203-7.61802606-1.26967099-3.80901297-6.34835783-12.69671286-10.15737371-22.85408654-49.51718332-114.27042439-72.37126713-158.70892091-85.06797996-171.40563377-22.85408377-22.85408377-52.05652535-34.28112846-83.79831178-34.28112847s-60.94422524 12.69671286-83.79830894 34.28112847c-22.85408377 22.85408377-34.28112846 52.05652535-34.28112848 83.79830896s12.69671286 60.94422524 34.28112848 83.79831177c38.09014143 38.09014143 223.46216193 111.73107954 260.28262954 125.69746629 2.53934201 1.26967099 6.34835783 1.26967099 8.88769989 1.26967099 10.15737088 0 19.04507074-6.34835783 22.85408657-15.23605768 6.34835783-13.9663839 0-27.93277059-12.6967157-33.01145467z m-242.50723267-115.54009538c-12.69671286-12.69671286-20.31474172-30.47211262-20.31474176-48.24751232s7.61802885-35.55079946 20.31474176-48.24751234 30.47211262-20.31474172 48.24751236-20.31474172 35.55079946 7.61802885 48.2475123 19.0450707c12.69671286 13.9663839 59.67455421 121.88845326 74.91061192 157.43924989 3.80901297 7.61802885 6.34835783 15.23605771 8.88769984 19.04507072 1.26967099 2.53934201 3.80901297 7.61802885 7.61802886 12.6967129-78.71962494-30.47211262-170.13596276-72.37126713-187.91136528-91.41633783z" p-id="1960" fill="#1296db"></path><path d="M1071.93543538 557.34342252l-339.00225454-339.00225731c-30.47211262-30.47211262-90.14666677-54.5958702-135.85483712-54.59586733h-6.34835784l-266.63098741 13.96638388c-48.24751237 2.53934201-88.87699585 43.16882548-91.41634067 91.41634065l-13.96638384 266.6309874c-2.53934201 45.70817036 21.5844127 110.46140853 54.59587012 142.20319498l339.00225455 339.00225453c16.50572871 16.50572871 39.35981247 25.39342855 62.21389903 25.39342861 24.12375473 0 45.70817036-8.88769987 62.21389621-25.39342861l335.19324151-335.1932415c16.50572871-16.50572871 25.39342855-39.35981247 25.39342857-62.21389626 0-24.12375473-8.88769987-45.70817036-25.39342857-62.21389904z m-700.85859561-241.23756161c-8.88769987 8.88769987-20.31474172 12.69671286-31.74178643 12.69671567s-22.85408377-5.07868684-31.74178361-12.69671567c-17.77539973-17.77539973-17.77539973-45.70817036 0-63.48356726 8.88769987-8.88769987 20.31474172-12.69671286 31.74178361-12.69671286s22.85408377 5.07868684 31.74178643 12.69671286c17.77539973 17.77539973 17.77539973 45.70817036 0 63.48356726z m387.24976685 300.9121159l85.06798279 85.06798275c5.07868684 5.07868684 3.80901297 12.69671286-1.26967102 17.77539972l-62.21389622 62.21389621c-5.07868684 5.07868684-13.9663839 6.34835783-17.77539972 1.26967104l-85.06798279-85.06797998c-2.53934201-2.53934201-8.88769987-2.53934201-11.42704186 0l-85.06798283 85.06797998c-5.07868684 5.07868684-12.69671286 3.80901297-17.77539968-1.26967104l-60.94422519-60.94422523c-5.07868684-5.07868684-6.34835783-15.23605771-2.53934203-19.0450707l85.06797999-85.06798275c3.80901297-3.80901297 3.80901297-8.88769987 0-11.42704192l-85.06797999-85.06798284c-2.53934201-2.53934201-3.80901297-5.07868684-2.53934487-8.88769701 0-3.80901297 1.26967099-7.61802885 3.80901588-10.15737366l62.21389621-62.21389621c2.53934201-2.53934201 6.34835783-5.07868684 10.15737085-5.07868404 2.53934201 0 6.34835783 1.26967099 7.61802883 2.53934199l85.06798283 85.06798283c2.53934201 2.53934201 8.88769987 2.53934201 11.42704186 0l86.33765379-86.33765384c5.07868684-5.07868684 12.69671286-3.80901297 17.77539972 1.26967101l62.21389624 62.21389623c2.53934201 2.53934201 3.80901297 6.34835783 5.07868684 10.15737084 0 3.80901297-1.26967099 6.34835783-2.53934481 8.88769992l-86.33765384 86.33765379c-1.26967099 1.26967099-2.53934201 3.80901297-2.539342 6.3483578s0 5.07868684 1.26967102 6.34835511z" p-id="1961" fill="#1296db"></path></svg> -->
<?xml version="1.0" standalone="no"?><!DOCTYPE svg PUBLIC "-//W3C//DTD SVG 1.1//EN" "http://www.w3.org/Graphics/SVG/1.1/DTD/svg11.dtd"><svg t="1582710430209" class="icon" viewBox="0 0 1024 1024" version="1.1" xmlns="http://www.w3.org/2000/svg" p-id="1200" width="200" height="200"><path d="M788.48 629.418667c0-17.066667-5.802667-31.744-17.749333-44.714667L421.205333 235.861333c-12.288-12.288-29.354667-22.869333-49.834667-31.744-21.162667-8.874667-39.936-12.970667-57.002667-12.970667L110.933333 191.146667c-17.066667 0-31.744 6.485333-44.032 18.773333-12.288 12.288-18.773333 26.965333-18.773333 44.032l0 202.752c0 17.066667 4.096 36.522667 12.970667 57.002667 8.874667 21.162667 18.773333 37.546667 31.744 49.834667l349.525333 349.525333c12.288 12.288 26.965333 17.749333 44.032 17.749333 17.066667 0 31.744-5.802667 44.714667-17.749333l239.616-239.616C781.994667 661.162667 788.48 646.485333 788.48 629.418667L788.48 629.418667 788.48 629.418667zM248.490667 392.192c-12.288 12.288-26.965333 18.090667-44.032 18.090667-17.066667 0-31.744-5.802667-44.032-18.090667-12.288-12.288-18.090667-26.965333-18.090667-44.032 0-17.066667 5.802667-31.744 18.090667-44.032 12.288-12.288 26.965333-18.090667 44.032-18.090667 17.066667 0 31.744 5.802667 44.032 18.090667C260.778667 316.416 266.24 331.093333 266.24 348.16 267.264 365.568 260.778667 379.904 248.490667 392.192L248.490667 392.192 248.490667 392.192zM958.122667 584.362667 608.597333 235.861333c-12.288-12.288-29.354667-22.869333-49.834667-31.744C537.6 195.242667 518.826667 191.146667 501.76 191.146667l-109.909333 0c17.066667 0 36.522667 4.096 57.002667 12.970667 21.162667 8.874667 37.546667 18.773333 49.834667 31.744l349.525333 348.501333c12.288 12.970667 18.090667 27.648 18.090667 44.714667s-5.802667 31.744-18.090667 44.032l-229.034667 229.717333c9.898667 9.898667 18.773333 17.066667 25.941333 21.845333 7.168 4.778667 17.066667 6.485333 28.672 6.485333 17.066667 0 31.744-5.802667 44.714667-18.090667l239.616-240.298667c12.288-12.288 17.749333-26.965333 17.749333-44.032S970.069333 597.674667 958.122667 584.362667L958.122667 584.362667 958.122667 584.362667zM958.122667 584.362667" p-id="1201" fill="#eb5403"></path></svg>
