<!-- <?xml version="1.0" standalone="no"?><!DOCTYPE svg PUBLIC "-//W3C//DTD SVG 1.1//EN" "http://www.w3.org/Graphics/SVG/1.1/DTD/svg11.dtd"><svg t="1576059338975" class="icon" viewBox="0 0 1024 1024" version="1.1" xmlns="http://www.w3.org/2000/svg" p-id="14319" xmlns:xlink="http://www.w3.org/1999/xlink" width="128" height="128"><defs><style type="text/css"></style></defs><path d="M275.797333 542.242133c60.074667 57.1392 143.428267 92.842667 235.451733 92.842667 92.7744 0 175.445333-35.703467 235.793067-93.184 60.416-57.5488 97.8944-137.216 97.8944-224.529067 0-87.722667-37.4784-166.980267-97.8944-224.529067l0.4096 0C687.104 35.362133 604.091733 0 511.249067 0 419.2256 0 335.872 35.362133 275.797333 92.842667 215.381333 150.391467 177.902933 229.717333 177.902933 317.371733c0 87.313067 37.4784 166.980267 97.8944 224.529067L275.797333 542.242133zM893.405867 774.5536l0-0.682667c-59.323733-56.183467-140.834133-91.477333-231.082667-91.477333 0 0-61.576533 33.9968-151.005867 33.9968-89.4976 0-150.3232-33.9968-150.3232-33.9968-90.248533 0-171.758933 35.362133-230.741333 92.16C70.519467 830.6688 34.133333 908.629333 34.133333 994.167467L34.133333 1024l955.733333 0 0-29.832533C989.866667 908.629333 952.7296 830.6688 893.405867 774.5536z" p-id="14320" fill="#1296db"></path></svg> -->
<?xml version="1.0" standalone="no"?><!DOCTYPE svg PUBLIC "-//W3C//DTD SVG 1.1//EN" "http://www.w3.org/Graphics/SVG/1.1/DTD/svg11.dtd"><svg t="1582711590554" class="icon" viewBox="0 0 1024 1024" version="1.1" xmlns="http://www.w3.org/2000/svg" p-id="9410" width="200" height="200"><path d="M845.3 774c0 37.9-10.8 70.3-32.5 97.4S764.9 912 734.4 912H289.6c-30.6 0-56.7-13.6-78.4-40.6-21.7-27.1-32.5-59.6-32.5-97.4 0-29.5 1.4-57.4 4.4-83.6 3-26.2 8.4-52.6 16.4-79.2 8-26.5 18.2-49.3 30.5-68.2s28.7-34.4 49-46.3c20.3-11.9 43.7-18 70.1-18 45.5 44.5 99.8 66.7 163 66.7s117.5-22.2 163-66.7c26.4 0 49.7 6 70.1 18 20.3 11.9 36.6 27.4 49 46.3 12.3 19 22.5 41.6 30.5 68.2 8 26.5 13.5 52.9 16.4 79.2 2.8 26.2 4.2 54.1 4.2 83.6zM653.4 170.6C692.5 209.7 712 256.8 712 312s-19.5 102.3-58.6 141.4S567.2 512 512 512s-102.3-19.5-141.4-58.6S312 367.2 312 312s19.5-102.3 58.6-141.4S456.8 112 512 112s102.3 19.5 141.4 58.6z" p-id="9411" fill="#eb5403"></path></svg>
