<?xml version="1.0" standalone="no"?><!DOCTYPE svg PUBLIC "-//W3C//DTD SVG 1.1//EN" "http://www.w3.org/Graphics/SVG/1.1/DTD/svg11.dtd"><svg t="1576059338975" class="icon" viewBox="0 0 1024 1024" version="1.1" xmlns="http://www.w3.org/2000/svg" p-id="14319" xmlns:xlink="http://www.w3.org/1999/xlink" width="128" height="128"><defs><style type="text/css"></style></defs><path d="M275.797333 542.242133c60.074667 57.1392 143.428267 92.842667 235.451733 92.842667 92.7744 0 175.445333-35.703467 235.793067-93.184 60.416-57.5488 97.8944-137.216 97.8944-224.529067 0-87.722667-37.4784-166.980267-97.8944-224.529067l0.4096 0C687.104 35.362133 604.091733 0 511.249067 0 419.2256 0 335.872 35.362133 275.797333 92.842667 215.381333 150.391467 177.902933 229.717333 177.902933 317.371733c0 87.313067 37.4784 166.980267 97.8944 224.529067L275.797333 542.242133zM893.405867 774.5536l0-0.682667c-59.323733-56.183467-140.834133-91.477333-231.082667-91.477333 0 0-61.576533 33.9968-151.005867 33.9968-89.4976 0-150.3232-33.9968-150.3232-33.9968-90.248533 0-171.758933 35.362133-230.741333 92.16C70.519467 830.6688 34.133333 908.629333 34.133333 994.167467L34.133333 1024l955.733333 0 0-29.832533C989.866667 908.629333 952.7296 830.6688 893.405867 774.5536z" p-id="14320" fill="#1296db"></path></svg>